<?xml version="1.0" encoding="utf-8"?>
<!-- Generator: Adobe Illustrator 23.0.6, SVG Export Plug-In . SVG Version: 6.00 Build 0)  -->
<svg version="1.1" id="Layer_1" xmlns="http://www.w3.org/2000/svg" xmlns:xlink="http://www.w3.org/1999/xlink" x="0px" y="0px"
	 viewBox="0 0 450.1 303.2" style="enable-background:new 0 0 450.1 303.2;" xml:space="preserve">
<style type="text/css">
	.st0{fill:#0A0A23;}
	.st1{fill:#0A0A23;fill-opacity:0;stroke:#000000;stroke-opacity:0;}
</style>
<g>
	<g>
		<g>
			<path id="d4Rql9uSPr" class="st0" d="M57.2,24.7C68,12.5,77,6.2,83.1,6.2c2,0,4.1,0.7,6.1,2.1c1.4,1.4,2.7,3.4,2.7,5.4
				c0,3.4-4.1,8.1-11.6,15.8c-31.3,30-47.1,66.8-47.1,111.2c0,49.1,16.4,88.6,48.5,119.3c6.7,6.1,9.5,10.8,9.5,14.9
				c0,2-1.4,4.1-2.7,6.1c-1.3,1.4-4.1,2.7-6.1,2.7c-7.4,0-17.8-8.8-31.3-25.9c-26.4-32.5-38.2-68.3-38.8-117
				C11.8,91.8,27.2,58.8,57.2,24.7z"/>
		</g>
		<g>
			<g>
				<path class="st1" d="M57.2,24.7C68,12.5,77,6.2,83.1,6.2c2,0,4.1,0.7,6.1,2.1c1.4,1.4,2.7,3.4,2.7,5.4c0,3.4-4.1,8.1-11.6,15.8
					c-31.3,30-47.1,66.8-47.1,111.2c0,49.1,16.4,88.6,48.5,119.3c6.7,6.1,9.5,10.8,9.5,14.9c0,2-1.4,4.1-2.7,6.1
					c-1.3,1.4-4.1,2.7-6.1,2.7c-7.4,0-17.8-8.8-31.3-25.9c-26.4-32.5-38.2-68.3-38.8-117C11.8,91.8,27.2,58.8,57.2,24.7z"/>
			</g>
		</g>
	</g>
	<g>
		<g>
			<path id="dWaxoexuR" class="st0" d="M124.5,275.1c-6.7,0-11.8-5.1-11.8-11.9c0-6.7,5.1-11.9,11.8-11.9c18.9,0,170.1,0,189,0
				c6.7,0,11.8,5.1,11.8,11.9c-1.7,6.8-5.1,11.9-11.8,11.9l0,0C200.1,275.1,137.1,275.1,124.5,275.1z"/>
		</g>
		<g>
			<g>
				<path class="st1" d="M124.5,275.1c-6.7,0-11.8-5.1-11.8-11.9c0-6.7,5.1-11.9,11.8-11.9c18.9,0,170.1,0,189,0
					c6.7,0,11.8,5.1,11.8,11.9c-1.7,6.8-5.1,11.9-11.8,11.9l0,0C200.1,275.1,137.1,275.1,124.5,275.1z"/>
			</g>
		</g>
	</g>
	<g>
		<g>
			<path id="c9FNOsrBq" class="st0" d="M194.5,60.1c0,34-46.5,71.5-46.5,106.8c0,38.1,29.3,62.7,57.3,70.1c4.1,0.7,5.4-3.4,0.7-4.7
				c-11.5-2.7-23.9-17.8-23.9-40.8c0-21.9,21.2-30,29.3-40.2c8.8-10.8,6.7-24.5,1.4-28.6c-5.4-4.1-1.4-9.5,7.4-2.7
				c8.8,6.1,16.4,18.5,13.5,29.3c-3.4,14.2,1.4,22.5,8.8,23.9c7.4,1.4,15.8-2.7,14.9-9.4c-0.9-6.7-4.7-14.2-2.7-14.2
				c5.4,0,16.5,12.9,16.5,34.1c0,21.2-17.2,35.3-22.5,40.8c-3.4,3.4,0.6,7.4,5.4,5.4c2.1-0.7,6.8-3.4,9.5-5.4
				c13.5-9.5,34.7-29.3,34.7-65.4c0-38.1-14.2-55.2-29.3-69.4c-14.9-14.2-18.5-10.8-14.2-3.4c12.2,21.2,4.7,28.6-4.1,28.6
				c-10.8,0-10.8-23.9-15.8-42.2C226.1,32,188.4,25,181.6,24.3c-4.9-2.2-11.2,1.8-2.9,5.2l0,0C189.2,36.7,194.5,46.9,194.5,60.1z"/>
		</g>
		<g>
			<g>
				<path class="st1" d="M194.5,60.1c0,34-46.5,71.5-46.5,106.8c0,38.1,29.3,62.7,57.3,70.1c4.1,0.7,5.4-3.4,0.7-4.7
					c-11.5-2.7-23.9-17.8-23.9-40.8c0-21.9,21.2-30,29.3-40.2c8.8-10.8,6.7-24.5,1.4-28.6c-5.4-4.1-1.4-9.5,7.4-2.7
					c8.8,6.1,16.4,18.5,13.5,29.3c-3.4,14.2,1.4,22.5,8.8,23.9c7.4,1.4,15.8-2.7,14.9-9.4c-0.9-6.7-4.7-14.2-2.7-14.2
					c5.4,0,16.5,12.9,16.5,34.1c0,21.2-17.2,35.3-22.5,40.8c-3.4,3.4,0.6,7.4,5.4,5.4c2.1-0.7,6.8-3.4,9.5-5.4
					c13.5-9.5,34.7-29.3,34.7-65.4c0-38.1-14.2-55.2-29.3-69.4c-14.9-14.2-18.5-10.8-14.2-3.4c12.2,21.2,4.7,28.6-4.1,28.6
					c-10.8,0-10.8-23.9-15.8-42.2C226.1,32,188.4,25,181.6,24.3c-4.9-2.2-11.2,1.8-2.9,5.2l0,0C189.2,36.7,194.5,46.9,194.5,60.1z"
					/>
			</g>
		</g>
	</g>
	<g>
		<g>
			<path id="c9DMqhZFi" class="st0" d="M380.5,265.9c-10.9,12.2-19.9,18.5-26,18.5c-2,0-4.1-0.7-6.1-2c-1.4-1.4-2.7-4.1-2.7-6.1
				c0-3.4,4.1-8.1,11.5-14.9c31.3-30,47.1-66.8,47.1-111.2c0-49.1-16.4-88.6-48.5-119.3c-6.7-6.1-9.5-10.8-9.5-14.9
				c0-2,1.4-4.1,2.7-6.1c1.3-1.4,4.1-2.7,6.1-2.7c6.7,0,17.8,8.8,31.3,26c25,32.4,39.8,70.2,38.8,117.4
				C424.3,198,410.5,231.9,380.5,265.9z"/>
		</g>
		<g>
			<g>
				<path class="st1" d="M380.5,265.9c-10.9,12.2-19.9,18.5-26,18.5c-2,0-4.1-0.7-6.1-2c-1.4-1.4-2.7-4.1-2.7-6.1
					c0-3.4,4.1-8.1,11.5-14.9c31.3-30,47.1-66.8,47.1-111.2c0-49.1-16.4-88.6-48.5-119.3c-6.7-6.1-9.5-10.8-9.5-14.9
					c0-2,1.4-4.1,2.7-6.1c1.3-1.4,4.1-2.7,6.1-2.7c6.7,0,17.8,8.8,31.3,26c25,32.4,39.8,70.2,38.8,117.4
					C424.3,198,410.5,231.9,380.5,265.9z"/>
			</g>
		</g>
	</g>
</g>
</svg>
